<?xml version="1.0" standalone="no"?>
<svg id="mermaid-diagram-1780379429265tq0nxz8" width="2277.4375" xmlns="http://www.w3.org/2000/svg" viewBox="-10 -10 2277.4375 842.173583984375" role="graphics-document document" aria-roledescription="flowchart-v2" height="842.173583984375"><style>#mermaid-diagram-1780379429265tq0nxz8{font-family:"trebuchet ms",verdana,arial,sans-serif;font-size:16px;fill:#333;}#mermaid-diagram-1780379429265tq0nxz8 .error-icon{fill:#552222;}#mermaid-diagram-1780379429265tq0nxz8 .error-text{fill:#552222;stroke:#552222;}#mermaid-diagram-1780379429265tq0nxz8 .edge-thickness-normal{stroke-width:2px;}#mermaid-diagram-1780379429265tq0nxz8 .edge-thickness-thick{stroke-width:3.5px;}#mermaid-diagram-1780379429265tq0nxz8 .edge-pattern-solid{stroke-dasharray:0;}#mermaid-diagram-1780379429265tq0nxz8 .edge-pattern-dashed{stroke-dasharray:3;}#mermaid-diagram-1780379429265tq0nxz8 .edge-pattern-dotted{stroke-dasharray:2;}#mermaid-diagram-1780379429265tq0nxz8 .marker{fill:#333333;stroke:#333333;}#mermaid-diagram-1780379429265tq0nxz8 .marker.cross{stroke:#333333;}#mermaid-diagram-1780379429265tq0nxz8 svg{font-family:"trebuchet ms",verdana,arial,sans-serif;font-size:16px;}#mermaid-diagram-1780379429265tq0nxz8 .label{font-family:"trebuchet ms",verdana,arial,sans-serif;color:#333;}#mermaid-diagram-1780379429265tq0nxz8 .cluster-label text{fill:#333;}#mermaid-diagram-1780379429265tq0nxz8 .cluster-label span,#mermaid-diagram-1780379429265tq0nxz8 p{color:#333;}#mermaid-diagram-1780379429265tq0nxz8 .label text,#mermaid-diagram-1780379429265tq0nxz8 span,#mermaid-diagram-1780379429265tq0nxz8 p{fill:#333;color:#333;}#mermaid-diagram-1780379429265tq0nxz8 .node rect,#mermaid-diagram-1780379429265tq0nxz8 .node circle,#mermaid-diagram-1780379429265tq0nxz8 .node ellipse,#mermaid-diagram-1780379429265tq0nxz8 .node polygon,#mermaid-diagram-1780379429265tq0nxz8 .node path{fill:#ECECFF;stroke:#9370DB;stroke-width:1px;}#mermaid-diagram-1780379429265tq0nxz8 .flowchart-label text{text-anchor:middle;}#mermaid-diagram-1780379429265tq0nxz8 .node .katex path{fill:#000;stroke:#000;stroke-width:1px;}#mermaid-diagram-1780379429265tq0nxz8 .node .label{text-align:center;}#mermaid-diagram-1780379429265tq0nxz8 .node.clickable{cursor:pointer;}#mermaid-diagram-1780379429265tq0nxz8 .arrowheadPath{fill:#333333;}#mermaid-diagram-1780379429265tq0nxz8 .edgePath .path{stroke:#333333;stroke-width:2.0px;}#mermaid-diagram-1780379429265tq0nxz8 .flowchart-link{stroke:#333333;fill:none;}#mermaid-diagram-1780379429265tq0nxz8 .edgeLabel{background-color:#e8e8e8;text-align:center;}#mermaid-diagram-1780379429265tq0nxz8 .edgeLabel rect{opacity:0.5;background-color:#e8e8e8;fill:#e8e8e8;}#mermaid-diagram-1780379429265tq0nxz8 .labelBkg{background-color:rgba(232, 232, 232, 0.5);}#mermaid-diagram-1780379429265tq0nxz8 .cluster rect{fill:#ffffde;stroke:#aaaa33;stroke-width:1px;}#mermaid-diagram-1780379429265tq0nxz8 .cluster text{fill:#333;}#mermaid-diagram-1780379429265tq0nxz8 .cluster span,#mermaid-diagram-1780379429265tq0nxz8 p{color:#333;}#mermaid-diagram-1780379429265tq0nxz8 div.mermaidTooltip{position:absolute;text-align:center;max-width:200px;padding:2px;font-family:"trebuchet ms",verdana,arial,sans-serif;font-size:12px;background:hsl(80, 100%, 96.2745098039%);border:1px solid #aaaa33;border-radius:2px;pointer-events:none;z-index:100;}#mermaid-diagram-1780379429265tq0nxz8 .flowchartTitleText{text-anchor:middle;font-size:18px;fill:#333;}#mermaid-diagram-1780379429265tq0nxz8 :root{--mermaid-font-family:"trebuchet ms",verdana,arial,sans-serif;}#mermaid-diagram-1780379429265tq0nxz8 .client&gt;*{fill:#e1f5fe!important;stroke:#01579b!important;stroke-width:2px!important;}#mermaid-diagram-1780379429265tq0nxz8 .client span{fill:#e1f5fe!important;stroke:#01579b!important;stroke-width:2px!important;}#mermaid-diagram-1780379429265tq0nxz8 .gateway&gt;*{fill:#fff3e0!important;stroke:#e65100!important;stroke-width:2px!important;}#mermaid-diagram-1780379429265tq0nxz8 .gateway span{fill:#fff3e0!important;stroke:#e65100!important;stroke-width:2px!important;}#mermaid-diagram-1780379429265tq0nxz8 .biz&gt;*{fill:#e8f5e9!important;stroke:#1b5e20!important;stroke-width:2px!important;}#mermaid-diagram-1780379429265tq0nxz8 .biz span{fill:#e8f5e9!important;stroke:#1b5e20!important;stroke-width:2px!important;}#mermaid-diagram-1780379429265tq0nxz8 .bridge&gt;*{fill:#fce4ec!important;stroke:#880e4f!important;stroke-width:2px!important;}#mermaid-diagram-1780379429265tq0nxz8 .bridge span{fill:#fce4ec!important;stroke:#880e4f!important;stroke-width:2px!important;}#mermaid-diagram-1780379429265tq0nxz8 .base&gt;*{fill:#f3e5f5!important;stroke:#4a148c!important;stroke-width:2px!important;}#mermaid-diagram-1780379429265tq0nxz8 .base span{fill:#f3e5f5!important;stroke:#4a148c!important;stroke-width:2px!important;}#mermaid-diagram-1780379429265tq0nxz8 .db&gt;*{fill:#fafafa!important;stroke:#616161!important;stroke-width:1px!important;stroke-dasharray:5 5!important;}#mermaid-diagram-1780379429265tq0nxz8 .db span{fill:#fafafa!important;stroke:#616161!important;stroke-width:1px!important;stroke-dasharray:5 5!important;}</style><g><marker id="mermaid-diagram-1780379429265tq0nxz8_flowchart-pointEnd" class="marker flowchart" viewBox="0 0 10 10" refX="6" refY="5" markerUnits="userSpaceOnUse" markerWidth="12" markerHeight="12" orient="auto"><path d="M 0 0 L 10 5 L 0 10 z" class="arrowMarkerPath" style="stroke-width: 1; stroke-dasharray: 1, 0;"/></marker><marker id="mermaid-diagram-1780379429265tq0nxz8_flowchart-pointStart" class="marker flowchart" viewBox="0 0 10 10" refX="4.5" refY="5" markerUnits="userSpaceOnUse" markerWidth="12" markerHeight="12" orient="auto"><path d="M 0 5 L 10 10 L 10 0 z" class="arrowMarkerPath" style="stroke-width: 1; stroke-dasharray: 1, 0;"/></marker><marker id="mermaid-diagram-1780379429265tq0nxz8_flowchart-circleEnd" class="marker flowchart" viewBox="0 0 10 10" refX="11" refY="5" markerUnits="userSpaceOnUse" markerWidth="11" markerHeight="11" orient="auto"><circle cx="5" cy="5" r="5" class="arrowMarkerPath" style="stroke-width: 1; stroke-dasharray: 1, 0;"/></marker><marker id="mermaid-diagram-1780379429265tq0nxz8_flowchart-circleStart" class="marker flowchart" viewBox="0 0 10 10" refX="-1" refY="5" markerUnits="userSpaceOnUse" markerWidth="11" markerHeight="11" orient="auto"><circle cx="5" cy="5" r="5" class="arrowMarkerPath" style="stroke-width: 1; stroke-dasharray: 1, 0;"/></marker><marker id="mermaid-diagram-1780379429265tq0nxz8_flowchart-crossEnd" class="marker cross flowchart" viewBox="0 0 11 11" refX="12" refY="5.2" markerUnits="userSpaceOnUse" markerWidth="11" markerHeight="11" orient="auto"><path d="M 1,1 l 9,9 M 10,1 l -9,9" class="arrowMarkerPath" style="stroke-width: 2; stroke-dasharray: 1, 0;"/></marker><marker id="mermaid-diagram-1780379429265tq0nxz8_flowchart-crossStart" class="marker cross flowchart" viewBox="0 0 11 11" refX="-1" refY="5.2" markerUnits="userSpaceOnUse" markerWidth="11" markerHeight="11" orient="auto"><path d="M 1,1 l 9,9 M 10,1 l -9,9" class="arrowMarkerPath" style="stroke-width: 2; stroke-dasharray: 1, 0;"/></marker><g class="root"><g class="clusters"><g class="cluster base flowchart-label" id="Layer1"><rect style="" rx="0" ry="0" x="45.85546875" y="612.173583984375" width="1060.37109375" height="210"/><g class="cluster-label" transform="translate(405.009765625, 612.173583984375)"><foreignObject width="342.0625" height="21" style="overflow: visible;"><div xmlns="http://www.w3.org/1999/xhtml" style="display: inline-block; white-space: nowrap; height: auto; line-height: 1;"><span class="nodeLabel">Layer 1: 上游 Kilo Code - 原生Fork，容器化引入</span></div></foreignObject></g></g><g class="cluster bridge flowchart-label" id="Layer2"><rect style="" rx="0" ry="0" x="0" y="432" width="1116.55078125" height="130.173583984375"/><g class="cluster-label" transform="translate(417.603515625, 432)"><foreignObject width="281.34375" height="21" style="overflow: visible;"><div xmlns="http://www.w3.org/1999/xhtml" style="display: inline-block; white-space: nowrap; height: auto; line-height: 1;"><span class="nodeLabel">Layer 2: 防腐桥接层 - 隔离上游Kilo升级</span></div></foreignObject></g></g><g class="cluster biz flowchart-label" id="Layer3"><rect style="" rx="0" ry="0" x="1136.55078125" y="310" width="1037.4375" height="252.173583984375"/><g class="cluster-label" transform="translate(1495.88671875, 310)"><foreignObject width="318.765625" height="21" style="overflow: visible;"><div xmlns="http://www.w3.org/1999/xhtml" style="display: inline-block; white-space: nowrap; height: auto; line-height: 1;"><span class="nodeLabel">Layer 3: 企业增值层 - 核心二开，微服务架构</span></div></foreignObject></g></g><g class="cluster gateway flowchart-label" id="Layer4"><rect style="" rx="0" ry="0" x="107.9765625" y="163" width="2149.4609375" height="97"/><g class="cluster-label" transform="translate(1057.51953125, 163)"><foreignObject width="250.375" height="21" style="overflow: visible;"><div xmlns="http://www.w3.org/1999/xhtml" style="display: inline-block; white-space: nowrap; height: auto; line-height: 1;"><span class="nodeLabel">Layer 4: API 网关层 - APISIX / Kong</span></div></foreignObject></g></g><g class="cluster client flowchart-label" id="Layer5"><rect style="" rx="0" ry="0" x="828.36328125" y="0" width="595.203125" height="113"/><g class="cluster-label" transform="translate(972.47265625, 0)"><foreignObject width="306.984375" height="21" style="overflow: visible;"><div xmlns="http://www.w3.org/1999/xhtml" style="display: inline-block; white-space: nowrap; height: auto; line-height: 1;"><span class="nodeLabel">Layer 5: 客户端层 - 基于 Kilo 原生扩展定制</span></div></foreignObject></g></g></g><g class="edgePaths"><path d="M1360.785,370.775L1407.324,376.812C1453.863,382.85,1546.941,394.925,1593.48,405.129C1640.02,415.333,1640.02,423.667,1653.383,434.668C1666.746,445.669,1693.473,459.337,1706.836,466.172L1720.199,473.006" id="L-RBAC-DB_PG-0" class=" edge-thickness-normal edge-pattern-solid flowchart-link LS-RBAC LE-DB_PG" style="fill:none;"/><path d="M2059.934,382L2059.934,386.167C2059.934,390.333,2059.934,398.667,2059.934,407C2059.934,415.333,2059.934,423.667,2059.934,432.101C2059.934,440.535,2059.934,449.07,2059.934,453.337L2059.934,457.605" id="L-Audit_Sys-DB_CK-0" class=" edge-thickness-normal edge-pattern-solid flowchart-link LS-Audit_Sys LE-DB_CK" style="fill:none;"/><path d="M1788.316,382L1788.316,386.167C1788.316,390.333,1788.316,398.667,1788.316,407C1788.316,415.333,1788.316,423.667,1786.944,432.147C1785.572,440.627,1782.828,449.255,1781.456,453.569L1780.084,457.882" id="L-License_Engine-DB_PG-0" class=" edge-thickness-normal edge-pattern-solid flowchart-link LS-License_Engine LE-DB_PG" style="fill:none;"/><path d="M1849.186,382L1859.979,386.167C1870.771,390.333,1892.356,398.667,1903.149,407C1913.941,415.333,1913.941,423.667,1913.941,432C1913.941,440.333,1913.941,448.667,1913.941,452.833L1913.941,457" id="L-License_Engine-DB_Redis-0" class=" edge-thickness-normal edge-pattern-solid flowchart-link LS-License_Engine LE-DB_Redis" style="fill:none;"/><path d="M324.625,668.03L394.516,674.887C464.406,681.744,604.188,695.459,675.628,705.681C747.069,715.902,750.169,722.631,751.719,725.996L753.269,729.36" id="L-Kilo_Engine-LLM_Cluster-0" class=" edge-thickness-normal edge-pattern-solid flowchart-link LS-Kilo_Engine LE-LLM_Cluster" style="fill:none;" marker-end="url(#mermaid-diagram-1780379429265tq0nxz8_flowchart-pointEnd)"/><path d="M249.648,684.174L249.648,688.34C249.648,692.507,249.648,700.84,249.648,709.624C249.648,718.407,249.648,727.64,249.648,732.257L249.648,736.874" id="L-Kilo_Engine-VecDB-0" class=" edge-thickness-normal edge-pattern-solid flowchart-link LS-Kilo_Engine LE-VecDB" style="fill:none;" marker-end="url(#mermaid-diagram-1780379429265tq0nxz8_flowchart-pointEnd)"/><path d="M797.688,673.193L832.999,679.19C868.31,685.187,938.932,697.18,974.243,707.793C1009.555,718.407,1009.555,727.64,1009.555,732.257L1009.555,736.874" id="L-Kilo_CLI-CodeRepo-0" class=" edge-thickness-normal edge-pattern-solid flowchart-link LS-Kilo_CLI LE-CodeRepo" style="fill:none;" marker-end="url(#mermaid-diagram-1780379429265tq0nxz8_flowchart-pointEnd)"/><path d="M723.969,684.174L723.969,688.34C723.969,692.507,723.969,700.84,656.306,713.067C588.642,725.293,453.316,741.413,385.653,749.473L317.989,757.533" id="L-Kilo_CLI-VecDB-0" class=" edge-thickness-normal edge-pattern-solid flowchart-link LS-Kilo_CLI LE-VecDB" style="fill:none;" marker-end="url(#mermaid-diagram-1780379429265tq0nxz8_flowchart-pointEnd)"/><path d="M949.691,88L949.691,92.167C949.691,96.333,949.691,104.667,949.691,113C949.691,121.333,949.691,129.667,949.691,138C949.691,146.333,949.691,154.667,985.436,164.729C1021.181,174.791,1092.671,186.582,1128.416,192.478L1164.161,198.373" id="L-VSCode-Auth-0" class=" edge-thickness-thick edge-pattern-solid flowchart-link LS-VSCode LE-Auth" style="stroke-width: 3.5px;fill:none;" marker-end="url(#mermaid-diagram-1780379429265tq0nxz8_flowchart-pointEnd)"/><path d="M1155.613,88L1155.613,92.167C1155.613,96.333,1155.613,104.667,1155.613,113C1155.613,121.333,1155.613,129.667,1155.613,138C1155.613,146.333,1155.613,154.667,1162.411,162.574C1169.209,170.482,1182.805,177.963,1189.603,181.704L1196.401,185.445" id="L-JB-Auth-0" class=" edge-thickness-thick edge-pattern-solid flowchart-link LS-JB LE-Auth" style="stroke-width: 3.5px;fill:none;" marker-end="url(#mermaid-diagram-1780379429265tq0nxz8_flowchart-pointEnd)"/><path d="M1331.887,88L1331.887,92.167C1331.887,96.333,1331.887,104.667,1331.887,113C1331.887,121.333,1331.887,129.667,1331.887,138C1331.887,146.333,1331.887,154.667,1325.089,162.574C1318.291,170.482,1304.695,177.963,1297.897,181.704L1291.099,185.445" id="L-CLI-Auth-0" class=" edge-thickness-thick edge-pattern-solid flowchart-link LS-CLI LE-Auth" style="stroke-width: 3.5px;fill:none;" marker-end="url(#mermaid-diagram-1780379429265tq0nxz8_flowchart-pointEnd)"/><path d="M1254.612,235L1256.538,239.167C1258.464,243.333,1262.316,251.667,1264.242,260C1266.168,268.333,1266.168,276.667,1266.168,285C1266.168,293.333,1266.168,301.667,1266.168,309.117C1266.168,316.567,1266.168,323.133,1266.168,326.417L1266.168,329.7" id="L-Auth-RBAC-0" class=" edge-thickness-thick edge-pattern-solid flowchart-link LS-Auth LE-RBAC" style="stroke-width: 3.5px;fill:none;" marker-end="url(#mermaid-diagram-1780379429265tq0nxz8_flowchart-pointEnd)"/><path d="M1318.109,218.123L1396.477,225.102C1474.845,232.082,1631.581,246.041,1709.949,257.187C1788.316,268.333,1788.316,276.667,1788.316,285C1788.316,293.333,1788.316,301.667,1788.316,309.117C1788.316,316.567,1788.316,323.133,1788.316,326.417L1788.316,329.7" id="L-Auth-License_Engine-0" class=" edge-thickness-thick edge-pattern-solid flowchart-link LS-Auth LE-License_Engine" style="stroke-width: 3.5px;fill:none;" marker-end="url(#mermaid-diagram-1780379429265tq0nxz8_flowchart-pointEnd)"/><path d="M1169.391,215.133L1016.315,222.61C863.24,230.088,557.089,245.044,404.013,256.689C250.938,268.333,250.938,276.667,250.938,285C250.938,293.333,250.938,301.667,250.938,313.917C250.938,326.167,250.938,342.333,250.938,358.5C250.938,374.667,250.938,390.833,250.938,403.083C250.938,415.333,250.938,423.667,237.874,434.369C224.81,445.072,198.682,458.144,185.619,464.679L172.555,471.215" id="L-Auth-API_Abs-0" class=" edge-thickness-thick edge-pattern-solid flowchart-link LS-Auth LE-API_Abs" style="stroke-width: 3.5px;fill:none;" marker-end="url(#mermaid-diagram-1780379429265tq0nxz8_flowchart-pointEnd)"/><path d="M1266.168,382L1266.168,386.167C1266.168,390.333,1266.168,398.667,1266.168,407C1266.168,415.333,1266.168,423.667,1090.47,437.818C914.772,451.969,563.375,471.938,387.677,481.923L211.979,491.908" id="L-RBAC-API_Abs-0" class=" edge-thickness-normal edge-pattern-dotted flowchart-link LS-RBAC LE-API_Abs" style="fill:none;stroke-width:2px;stroke-dasharray:3;" marker-end="url(#mermaid-diagram-1780379429265tq0nxz8_flowchart-pointEnd)"/><path d="M1666.785,373.297L1620.65,378.914C1574.516,384.531,1482.246,395.766,1436.111,405.55C1389.977,415.333,1389.977,423.667,1193.644,437.902C997.311,452.138,604.646,472.275,408.313,482.344L211.981,492.413" id="L-License_Engine-API_Abs-0" class=" edge-thickness-normal edge-pattern-dotted flowchart-link LS-License_Engine LE-API_Abs" style="fill:none;stroke-width:2px;stroke-dasharray:3;" marker-end="url(#mermaid-diagram-1780379429265tq0nxz8_flowchart-pointEnd)"/><path d="M1513.785,382L1513.785,386.167C1513.785,390.333,1513.785,398.667,1513.785,407C1513.785,415.333,1513.785,423.667,1363.971,437.706C1214.156,451.746,914.527,471.491,764.712,481.364L614.898,491.237" id="L-Model_Cfg-Cfg_Trans-0" class=" edge-thickness-normal edge-pattern-dotted flowchart-link LS-Model_Cfg LE-Cfg_Trans" style="fill:none;stroke-width:2px;stroke-dasharray:3;" marker-end="url(#mermaid-diagram-1780379429265tq0nxz8_flowchart-pointEnd)"/><path d="M120.844,520.587L120.844,527.518C120.844,534.449,120.844,548.311,120.844,559.409C120.844,570.507,120.844,578.84,120.844,587.174C120.844,595.507,120.844,603.84,131.083,611.862C141.322,619.884,161.8,627.595,172.039,631.451L182.278,635.306" id="L-API_Abs-Kilo_Engine-0" class=" edge-thickness-thick edge-pattern-solid flowchart-link LS-API_Abs LE-Kilo_Engine" style="stroke-width: 3.5px;fill:none;" marker-end="url(#mermaid-diagram-1780379429265tq0nxz8_flowchart-pointEnd)"/><path d="M324.672,520.587L324.672,527.518C324.672,534.449,324.672,548.311,324.672,559.409C324.672,570.507,324.672,578.84,324.672,587.174C324.672,595.507,324.672,603.84,318.968,611.694C313.265,619.548,301.858,626.922,296.154,630.609L290.451,634.296" id="L-Ver_Adapt-Kilo_Engine-0" class=" edge-thickness-thick edge-pattern-solid flowchart-link LS-Ver_Adapt LE-Kilo_Engine" style="stroke-width: 3.5px;fill:none;" marker-end="url(#mermaid-diagram-1780379429265tq0nxz8_flowchart-pointEnd)"/><path d="M526.133,520.587L526.133,527.518C526.133,534.449,526.133,548.311,526.133,559.409C526.133,570.507,526.133,578.84,526.133,587.174C526.133,595.507,526.133,603.84,493.418,613.746C460.704,623.651,395.274,635.128,362.56,640.867L329.845,646.606" id="L-Cfg_Trans-Kilo_Engine-0" class=" edge-thickness-thick edge-pattern-solid flowchart-link LS-Cfg_Trans LE-Kilo_Engine" style="stroke-width: 3.5px;fill:none;" marker-end="url(#mermaid-diagram-1780379429265tq0nxz8_flowchart-pointEnd)"/><path d="M723.969,520.587L723.969,527.518C723.969,534.449,723.969,548.311,723.969,559.409C723.969,570.507,723.969,578.84,723.969,587.174C723.969,595.507,723.969,603.84,723.969,611.29C723.969,618.74,723.969,625.307,723.969,628.59L723.969,631.874" id="L-Idx_Bridge-Kilo_CLI-0" class=" edge-thickness-thick edge-pattern-solid flowchart-link LS-Idx_Bridge LE-Kilo_CLI" style="stroke-width: 3.5px;fill:none;" marker-end="url(#mermaid-diagram-1780379429265tq0nxz8_flowchart-pointEnd)"/><path d="M961.316,520.587L961.316,527.518C961.316,534.449,961.316,548.311,961.316,559.409C961.316,570.507,961.316,578.84,961.316,587.174C961.316,595.507,961.316,603.84,961.316,616.09C961.316,628.34,961.316,644.507,961.316,660.674C961.316,676.84,961.316,693.007,948.055,705.007C934.793,717.007,908.27,724.84,895.008,728.756L881.746,732.672" id="L-Model_Adapt-LLM_Cluster-0" class=" edge-thickness-thick edge-pattern-solid flowchart-link LS-Model_Adapt LE-LLM_Cluster" style="stroke-width: 3.5px;fill:none;" marker-end="url(#mermaid-diagram-1780379429265tq0nxz8_flowchart-pointEnd)"/></g><g class="edgeLabels"><g class="edgeLabel"><g class="label" transform="translate(0, 0)"><foreignObject width="0" height="4" style="overflow: visible;"><div xmlns="http://www.w3.org/1999/xhtml" style="display: inline-block; white-space: nowrap; height: auto; line-height: 1;"><span class="edgeLabel"></span></div></foreignObject></g></g><g class="edgeLabel"><g class="label" transform="translate(0, 0)"><foreignObject width="0" height="4" style="overflow: visible;"><div xmlns="http://www.w3.org/1999/xhtml" style="display: inline-block; white-space: nowrap; height: auto; line-height: 1;"><span class="edgeLabel"></span></div></foreignObject></g></g><g class="edgeLabel"><g class="label" transform="translate(0, 0)"><foreignObject width="0" height="4" style="overflow: visible;"><div xmlns="http://www.w3.org/1999/xhtml" style="display: inline-block; white-space: nowrap; height: auto; line-height: 1;"><span class="edgeLabel"></span></div></foreignObject></g></g><g class="edgeLabel"><g class="label" transform="translate(0, 0)"><foreignObject width="0" height="4" style="overflow: visible;"><div xmlns="http://www.w3.org/1999/xhtml" style="display: inline-block; white-space: nowrap; height: auto; line-height: 1;"><span class="edgeLabel"></span></div></foreignObject></g></g><g class="edgeLabel"><g class="label" transform="translate(0, 0)"><foreignObject width="0" height="4" style="overflow: visible;"><div xmlns="http://www.w3.org/1999/xhtml" style="display: inline-block; white-space: nowrap; height: auto; line-height: 1;"><span class="edgeLabel"></span></div></foreignObject></g></g><g class="edgeLabel"><g class="label" transform="translate(0, 0)"><foreignObject width="0" height="4" style="overflow: visible;"><div xmlns="http://www.w3.org/1999/xhtml" style="display: inline-block; white-space: nowrap; height: auto; line-height: 1;"><span class="edgeLabel"></span></div></foreignObject></g></g><g class="edgeLabel"><g class="label" transform="translate(0, 0)"><foreignObject width="0" height="4" style="overflow: visible;"><div xmlns="http://www.w3.org/1999/xhtml" style="display: inline-block; white-space: nowrap; height: auto; line-height: 1;"><span class="edgeLabel"></span></div></foreignObject></g></g><g class="edgeLabel"><g class="label" transform="translate(0, 0)"><foreignObject width="0" height="4" style="overflow: visible;"><div xmlns="http://www.w3.org/1999/xhtml" style="display: inline-block; white-space: nowrap; height: auto; line-height: 1;"><span class="edgeLabel"></span></div></foreignObject></g></g><g class="edgeLabel"><g class="label" transform="translate(0, 0)"><foreignObject width="0" height="4" style="overflow: visible;"><div xmlns="http://www.w3.org/1999/xhtml" style="display: inline-block; white-space: nowrap; height: auto; line-height: 1;"><span class="edgeLabel"></span></div></foreignObject></g></g><g class="edgeLabel"><g class="label" transform="translate(0, 0)"><foreignObject width="0" height="4" style="overflow: visible;"><div xmlns="http://www.w3.org/1999/xhtml" style="display: inline-block; white-space: nowrap; height: auto; line-height: 1;"><span class="edgeLabel"></span></div></foreignObject></g></g><g class="edgeLabel"><g class="label" transform="translate(0, 0)"><foreignObject width="0" height="4" style="overflow: visible;"><div xmlns="http://www.w3.org/1999/xhtml" style="display: inline-block; white-space: nowrap; height: auto; line-height: 1;"><span class="edgeLabel"></span></div></foreignObject></g></g><g class="edgeLabel"><g class="label" transform="translate(0, 0)"><foreignObject width="0" height="4" style="overflow: visible;"><div xmlns="http://www.w3.org/1999/xhtml" style="display: inline-block; white-space: nowrap; height: auto; line-height: 1;"><span class="edgeLabel"></span></div></foreignObject></g></g><g class="edgeLabel"><g class="label" transform="translate(0, 0)"><foreignObject width="0" height="4" style="overflow: visible;"><div xmlns="http://www.w3.org/1999/xhtml" style="display: inline-block; white-space: nowrap; height: auto; line-height: 1;"><span class="edgeLabel"></span></div></foreignObject></g></g><g class="edgeLabel"><g class="label" transform="translate(0, 0)"><foreignObject width="0" height="4" style="overflow: visible;"><div xmlns="http://www.w3.org/1999/xhtml" style="display: inline-block; white-space: nowrap; height: auto; line-height: 1;"><span class="edgeLabel"></span></div></foreignObject></g></g><g class="edgeLabel"><g class="label" transform="translate(0, 0)"><foreignObject width="0" height="4" style="overflow: visible;"><div xmlns="http://www.w3.org/1999/xhtml" style="display: inline-block; white-space: nowrap; height: auto; line-height: 1;"><span class="edgeLabel"></span></div></foreignObject></g></g><g class="edgeLabel"><g class="label" transform="translate(0, 0)"><foreignObject width="0" height="4" style="overflow: visible;"><div xmlns="http://www.w3.org/1999/xhtml" style="display: inline-block; white-space: nowrap; height: auto; line-height: 1;"><span class="edgeLabel"></span></div></foreignObject></g></g><g class="edgeLabel"><g class="label" transform="translate(0, 0)"><foreignObject width="0" height="4" style="overflow: visible;"><div xmlns="http://www.w3.org/1999/xhtml" style="display: inline-block; white-space: nowrap; height: auto; line-height: 1;"><span class="edgeLabel"></span></div></foreignObject></g></g><g class="edgeLabel"><g class="label" transform="translate(0, 0)"><foreignObject width="0" height="4" style="overflow: visible;"><div xmlns="http://www.w3.org/1999/xhtml" style="display: inline-block; white-space: nowrap; height: auto; line-height: 1;"><span class="edgeLabel"></span></div></foreignObject></g></g><g class="edgeLabel"><g class="label" transform="translate(0, 0)"><foreignObject width="0" height="4" style="overflow: visible;"><div xmlns="http://www.w3.org/1999/xhtml" style="display: inline-block; white-space: nowrap; height: auto; line-height: 1;"><span class="edgeLabel"></span></div></foreignObject></g></g><g class="edgeLabel"><g class="label" transform="translate(0, 0)"><foreignObject width="0" height="4" style="overflow: visible;"><div xmlns="http://www.w3.org/1999/xhtml" style="display: inline-block; white-space: nowrap; height: auto; line-height: 1;"><span class="edgeLabel"></span></div></foreignObject></g></g><g class="edgeLabel"><g class="label" transform="translate(0, 0)"><foreignObject width="0" height="4" style="overflow: visible;"><div xmlns="http://www.w3.org/1999/xhtml" style="display: inline-block; white-space: nowrap; height: auto; line-height: 1;"><span class="edgeLabel"></span></div></foreignObject></g></g><g class="edgeLabel"><g class="label" transform="translate(0, 0)"><foreignObject width="0" height="4" style="overflow: visible;"><div xmlns="http://www.w3.org/1999/xhtml" style="display: inline-block; white-space: nowrap; height: auto; line-height: 1;"><span class="edgeLabel"></span></div></foreignObject></g></g></g><g class="nodes"><g class="node default base flowchart-label" id="flowchart-Kilo_Engine-107" data-node="true" data-id="Kilo_Engine" transform="translate(249.6484375, 660.673583984375)"><rect class="basic label-container" style="" rx="0" ry="0" x="-74.9765625" y="-23.5" width="149.953125" height="47"/><g class="label" style="" transform="translate(-67.4765625, -16)"><rect/><foreignObject width="134.953125" height="37" style="overflow: visible;"><div xmlns="http://www.w3.org/1999/xhtml" style="display: inline-block; white-space: nowrap; height: auto; line-height: 1;"><span class="nodeLabel">Kilo Engine<br />(OpenCode Server)</span></div></foreignObject></g></g><g class="node default base flowchart-label" id="flowchart-Kilo_CLI-108" data-node="true" data-id="Kilo_CLI" transform="translate(723.96875, 660.673583984375)"><rect class="basic label-container" style="" rx="0" ry="0" x="-73.71875" y="-23.5" width="147.4375" height="47"/><g class="label" style="" transform="translate(-66.21875, -16)"><rect/><foreignObject width="132.4375" height="37" style="overflow: visible;"><div xmlns="http://www.w3.org/1999/xhtml" style="display: inline-block; white-space: nowrap; height: auto; line-height: 1;"><span class="nodeLabel">Kilo CLI<br />(Agent Loop/索引)</span></div></foreignObject></g></g><g class="node default base flowchart-label" id="flowchart-VecDB-109" data-node="true" data-id="VecDB" transform="translate(249.6484375, 765.673583984375)"><rect class="basic label-container" style="" rx="0" ry="0" x="-63.078125" y="-23.5" width="126.15625" height="47"/><g class="label" style="" transform="translate(-55.578125, -16)"><rect/><foreignObject width="111.15625" height="37" style="overflow: visible;"><div xmlns="http://www.w3.org/1999/xhtml" style="display: inline-block; white-space: nowrap; height: auto; line-height: 1;"><span class="nodeLabel">向量数据库<br />Qdrant / Milvus</span></div></foreignObject></g></g><g class="node default base flowchart-label" id="flowchart-LLM_Cluster-110" data-node="true" data-id="LLM_Cluster" transform="translate(770, 765.673583984375)"><rect class="basic label-container" style="" rx="0" ry="0" x="-127.8828125" y="-31.5" width="255.765625" height="63"/><g class="label" style="" transform="translate(-120.3828125, -24)"><rect/><foreignObject width="240.765625" height="53" style="overflow: visible;"><div xmlns="http://www.w3.org/1999/xhtml" style="display: inline-block; white-space: nowrap; height: auto; line-height: 1;"><span class="nodeLabel">本地 LLM 集群<br />vLLM/SGLang<br />Qwen2.5-Coder-14B / Qwen3-80B</span></div></foreignObject></g></g><g class="node default base flowchart-label" id="flowchart-CodeRepo-111" data-node="true" data-id="CodeRepo" transform="translate(1009.5546875, 765.673583984375)"><rect class="basic label-container" style="" rx="0" ry="0" x="-61.671875" y="-23.5" width="123.34375" height="47"/><g class="label" style="" transform="translate(-54.171875, -16)"><rect/><foreignObject width="108.34375" height="37" style="overflow: visible;"><div xmlns="http://www.w3.org/1999/xhtml" style="display: inline-block; white-space: nowrap; height: auto; line-height: 1;"><span class="nodeLabel">企业代码库<br />NFS / 对象存储</span></div></foreignObject></g></g><g class="node default bridge flowchart-label" id="flowchart-API_Abs-102" data-node="true" data-id="API_Abs" transform="translate(120.84375, 497.0867919921875)"><rect class="basic label-container" style="" rx="0" ry="0" x="-85.84375" y="-23.5" width="171.6875" height="47"/><g class="label" style="" transform="translate(-78.34375, -16)"><rect/><foreignObject width="156.6875" height="37" style="overflow: visible;"><div xmlns="http://www.w3.org/1999/xhtml" style="display: inline-block; white-space: nowrap; height: auto; line-height: 1;"><span class="nodeLabel">API 抽象封装<br />/v1/completions 统一</span></div></foreignObject></g></g><g class="node default bridge flowchart-label" id="flowchart-Ver_Adapt-103" data-node="true" data-id="Ver_Adapt" transform="translate(324.671875, 497.0867919921875)"><rect class="basic label-container" style="" rx="0" ry="0" x="-67.984375" y="-23.5" width="135.96875" height="47"/><g class="label" style="" transform="translate(-60.484375, -16)"><rect/><foreignObject width="120.96875" height="37" style="overflow: visible;"><div xmlns="http://www.w3.org/1999/xhtml" style="display: inline-block; white-space: nowrap; height: auto; line-height: 1;"><span class="nodeLabel">版本适配器<br />v0.x -&gt; v1.x 映射</span></div></foreignObject></g></g><g class="node default bridge flowchart-label" id="flowchart-Cfg_Trans-104" data-node="true" data-id="Cfg_Trans" transform="translate(526.1328125, 497.0867919921875)"><rect class="basic label-container" style="" rx="0" ry="0" x="-83.4765625" y="-23.5" width="166.953125" height="47"/><g class="label" style="" transform="translate(-75.9765625, -16)"><rect/><foreignObject width="151.953125" height="37" style="overflow: visible;"><div xmlns="http://www.w3.org/1999/xhtml" style="display: inline-block; white-space: nowrap; height: auto; line-height: 1;"><span class="nodeLabel">配置翻译层<br />TOML/JSON &lt;-&gt; YAML</span></div></foreignObject></g></g><g class="node default bridge flowchart-label" id="flowchart-Idx_Bridge-105" data-node="true" data-id="Idx_Bridge" transform="translate(723.96875, 497.0867919921875)"><rect class="basic label-container" style="" rx="0" ry="0" x="-63.5" y="-23.5" width="127" height="47"/><g class="label" style="" transform="translate(-56, -16)"><rect/><foreignObject width="112" height="37" style="overflow: visible;"><div xmlns="http://www.w3.org/1999/xhtml" style="display: inline-block; white-space: nowrap; height: auto; line-height: 1;"><span class="nodeLabel">索引服务桥接<br />向量库统一接入</span></div></foreignObject></g></g><g class="node default bridge flowchart-label" id="flowchart-Model_Adapt-106" data-node="true" data-id="Model_Adapt" transform="translate(961.31640625, 497.0867919921875)"><rect class="basic label-container" style="" rx="0" ry="0" x="-120.234375" y="-23.5" width="240.46875" height="47"/><g class="label" style="" transform="translate(-112.734375, -16)"><rect/><foreignObject width="225.46875" height="37" style="overflow: visible;"><div xmlns="http://www.w3.org/1999/xhtml" style="display: inline-block; white-space: nowrap; height: auto; line-height: 1;"><span class="nodeLabel">国产模型适配层<br />Qwen/DeepSeek/GLM 统一接口</span></div></foreignObject></g></g><g class="node default biz flowchart-label" id="flowchart-RBAC-85" data-node="true" data-id="RBAC" transform="translate(1266.16796875, 358.5)"><rect class="basic label-container" style="" rx="0" ry="0" x="-94.6171875" y="-23.5" width="189.234375" height="47"/><g class="label" style="" transform="translate(-87.1171875, -16)"><rect/><foreignObject width="174.234375" height="37" style="overflow: visible;"><div xmlns="http://www.w3.org/1999/xhtml" style="display: inline-block; white-space: nowrap; height: auto; line-height: 1;"><span class="nodeLabel">权限管理 (RBAC)<br />SSO / 三员管理 / 多租户</span></div></foreignObject></g></g><g class="node default biz flowchart-label" id="flowchart-Audit_Sys-86" data-node="true" data-id="Audit_Sys" transform="translate(2059.93359375, 358.5)"><rect class="basic label-container" style="" rx="0" ry="0" x="-79.0546875" y="-23.5" width="158.109375" height="47"/><g class="label" style="" transform="translate(-71.5546875, -16)"><rect/><foreignObject width="143.109375" height="37" style="overflow: visible;"><div xmlns="http://www.w3.org/1999/xhtml" style="display: inline-block; white-space: nowrap; height: auto; line-height: 1;"><span class="nodeLabel">审计日志系统<br />WORM / 哈希链校验</span></div></foreignObject></g></g><g class="node default biz flowchart-label" id="flowchart-License_Engine-87" data-node="true" data-id="License_Engine" transform="translate(1788.31640625, 358.5)"><rect class="basic label-container" style="" rx="0" ry="0" x="-121.53125" y="-23.5" width="243.0625" height="47"/><g class="label" style="" transform="translate(-114.03125, -16)"><rect/><foreignObject width="228.0625" height="37" style="overflow: visible;"><div xmlns="http://www.w3.org/1999/xhtml" style="display: inline-block; white-space: nowrap; height: auto; line-height: 1;"><span class="nodeLabel">License &amp; 订阅引擎<br />在线验证 / 离线激活 / 降级冻结</span></div></foreignObject></g></g><g class="node default biz flowchart-label" id="flowchart-Admin-88" data-node="true" data-id="Admin" transform="translate(1305.796875, 497.0867919921875)"><rect class="basic label-container" style="" rx="0" ry="0" x="-88.296875" y="-23.5" width="176.59375" height="47"/><g class="label" style="" transform="translate(-80.796875, -16)"><rect/><foreignObject width="161.59375" height="37" style="overflow: visible;"><div xmlns="http://www.w3.org/1999/xhtml" style="display: inline-block; white-space: nowrap; height: auto; line-height: 1;"><span class="nodeLabel">管理后台<br />React + Ant Design Pro</span></div></foreignObject></g></g><g class="node default biz flowchart-label" id="flowchart-Model_Cfg-89" data-node="true" data-id="Model_Cfg" transform="translate(1513.78515625, 358.5)"><rect class="basic label-container" style="" rx="0" ry="0" x="-103" y="-23.5" width="206" height="47"/><g class="label" style="" transform="translate(-95.5, -16)"><rect/><foreignObject width="191" height="37" style="overflow: visible;"><div xmlns="http://www.w3.org/1999/xhtml" style="display: inline-block; white-space: nowrap; height: auto; line-height: 1;"><span class="nodeLabel">模型配置管理<br />Endpoint / Fallback / 配额</span></div></foreignObject></g></g><g class="node default biz flowchart-label" id="flowchart-Trust-90" data-node="true" data-id="Trust" transform="translate(1523.65625, 497.0867919921875)"><rect class="basic label-container" style="" rx="0" ry="0" x="-79.5625" y="-23.5" width="159.125" height="47"/><g class="label" style="" transform="translate(-72.0625, -16)"><rect/><foreignObject width="144.125" height="37" style="overflow: visible;"><div xmlns="http://www.w3.org/1999/xhtml" style="display: inline-block; white-space: nowrap; height: auto; line-height: 1;"><span class="nodeLabel">信创适配层 (预留)<br />国产CPU/OS/中间件</span></div></foreignObject></g></g><g class="node default db flowchart-label" id="flowchart-DB_PG-91" label-offset-y="10.741783702858772" data-node="true" data-id="DB_PG" transform="translate(1767.28515625, 497.0867919921875)"><path style="" d="M 0,10.741783702858772 a 47.0859375,10.741783702858772 0,0,0 94.171875 0 a 47.0859375,10.741783702858772 0,0,0 -94.171875 0 l 0,57.74178370285877 a 47.0859375,10.741783702858772 0,0,0 94.171875 0 l 0,-57.74178370285877" transform="translate(-47.0859375,-39.61267555428816)"/><g class="label" style="" transform="translate(-39.5859375, -16)"><rect/><foreignObject width="79.171875" height="37" style="overflow: visible;"><div xmlns="http://www.w3.org/1999/xhtml" style="display: inline-block; white-space: nowrap; height: auto; line-height: 1;"><span class="nodeLabel">PostgreSQL<br />(主库)</span></div></foreignObject></g></g><g class="node default db flowchart-label" id="flowchart-DB_Redis-92" label-offset-y="11.05785988149181" data-node="true" data-id="DB_Redis" transform="translate(1913.94140625, 497.0867919921875)"><path style="" d="M 0,11.05785988149181 a 49.5703125,11.05785988149181 0,0,0 99.140625 0 a 49.5703125,11.05785988149181 0,0,0 -99.140625 0 l 0,58.05785988149181 a 49.5703125,11.05785988149181 0,0,0 99.140625 0 l 0,-58.05785988149181" transform="translate(-49.5703125,-40.08678982223771)"/><g class="label" style="" transform="translate(-42.0703125, -16)"><rect/><foreignObject width="84.140625" height="37" style="overflow: visible;"><div xmlns="http://www.w3.org/1999/xhtml" style="display: inline-block; white-space: nowrap; height: auto; line-height: 1;"><span class="nodeLabel">Redis<br />(缓存/限流)</span></div></foreignObject></g></g><g class="node default db flowchart-label" id="flowchart-DB_CK-93" label-offset-y="10.654855831301104" data-node="true" data-id="DB_CK" transform="translate(2059.93359375, 497.0867919921875)"><path style="" d="M 0,10.654855831301104 a 46.421875,10.654855831301104 0,0,0 92.84375 0 a 46.421875,10.654855831301104 0,0,0 -92.84375 0 l 0,57.654855831301106 a 46.421875,10.654855831301104 0,0,0 92.84375 0 l 0,-57.654855831301106" transform="translate(-46.421875,-39.48228374695166)"/><g class="label" style="" transform="translate(-38.921875, -16)"><rect/><foreignObject width="77.84375" height="37" style="overflow: visible;"><div xmlns="http://www.w3.org/1999/xhtml" style="display: inline-block; white-space: nowrap; height: auto; line-height: 1;"><span class="nodeLabel">ClickHouse<br />(审计)</span></div></foreignObject></g></g><g class="node default gateway flowchart-label" id="flowchart-Auth-79" data-node="true" data-id="Auth" transform="translate(1243.75, 211.5)"><rect class="basic label-container" style="" rx="0" ry="0" x="-74.359375" y="-23.5" width="148.71875" height="47"/><g class="label" style="" transform="translate(-66.859375, -16)"><rect/><foreignObject width="133.71875" height="37" style="overflow: visible;"><div xmlns="http://www.w3.org/1999/xhtml" style="display: inline-block; white-space: nowrap; height: auto; line-height: 1;"><span class="nodeLabel">统一鉴权<br />JWT / X.509 / SM2</span></div></foreignObject></g></g><g class="node default gateway flowchart-label" id="flowchart-Limit-80" data-node="true" data-id="Limit" transform="translate(1436.8046875, 211.5)"><rect class="basic label-container" style="" rx="0" ry="0" x="-68.6953125" y="-23.5" width="137.390625" height="47"/><g class="label" style="" transform="translate(-61.1953125, -16)"><rect/><foreignObject width="122.390625" height="37" style="overflow: visible;"><div xmlns="http://www.w3.org/1999/xhtml" style="display: inline-block; white-space: nowrap; height: auto; line-height: 1;"><span class="nodeLabel">限流熔断<br />100~500 req/min</span></div></foreignObject></g></g><g class="node default gateway flowchart-label" id="flowchart-Canary-81" data-node="true" data-id="Canary" transform="translate(1605.2890625, 211.5)"><rect class="basic label-container" style="" rx="0" ry="0" x="-49.7890625" y="-23.5" width="99.578125" height="47"/><g class="label" style="" transform="translate(-42.2890625, -16)"><rect/><foreignObject width="84.578125" height="37" style="overflow: visible;"><div xmlns="http://www.w3.org/1999/xhtml" style="display: inline-block; white-space: nowrap; height: auto; line-height: 1;"><span class="nodeLabel">灰度发布<br />Traffic-Split</span></div></foreignObject></g></g><g class="node default gateway flowchart-label" id="flowchart-Audit_GW-82" data-node="true" data-id="Audit_GW" transform="translate(1783.4609375, 211.5)"><rect class="basic label-container" style="" rx="0" ry="0" x="-78.3828125" y="-23.5" width="156.765625" height="47"/><g class="label" style="" transform="translate(-70.8828125, -16)"><rect/><foreignObject width="141.765625" height="37" style="overflow: visible;"><div xmlns="http://www.w3.org/1999/xhtml" style="display: inline-block; white-space: nowrap; height: auto; line-height: 1;"><span class="nodeLabel">请求审计<br />Kafka -&gt; ClickHouse</span></div></foreignObject></g></g><g class="node default gateway flowchart-label" id="flowchart-SSE-83" data-node="true" data-id="SSE" transform="translate(1988.8515625, 211.5)"><rect class="basic label-container" style="" rx="0" ry="0" x="-77.0078125" y="-23.5" width="154.015625" height="47"/><g class="label" style="" transform="translate(-69.5078125, -16)"><rect/><foreignObject width="139.015625" height="37" style="overflow: visible;"><div xmlns="http://www.w3.org/1999/xhtml" style="display: inline-block; white-space: nowrap; height: auto; line-height: 1;"><span class="nodeLabel">SSE流式支持<br />proxy_buffering off</span></div></foreignObject></g></g><g class="node default gateway flowchart-label" id="flowchart-GM_SSL-84" data-node="true" data-id="GM_SSL" transform="translate(2169.1484375, 211.5)"><rect class="basic label-container" style="" rx="0" ry="0" x="-53.2890625" y="-23.5" width="106.578125" height="47"/><g class="label" style="" transform="translate(-45.7890625, -16)"><rect/><foreignObject width="91.578125" height="37" style="overflow: visible;"><div xmlns="http://www.w3.org/1999/xhtml" style="display: inline-block; white-space: nowrap; height: auto; line-height: 1;"><span class="nodeLabel">国密传输<br />SM2/SM4 SSL</span></div></foreignObject></g></g><g class="node default client flowchart-label" id="flowchart-VSCode-76" data-node="true" data-id="VSCode" transform="translate(949.69140625, 56.5)"><rect class="basic label-container" style="" rx="0" ry="0" x="-86.328125" y="-31.5" width="172.65625" height="63"/><g class="label" style="" transform="translate(-78.828125, -24)"><rect/><foreignObject width="157.65625" height="53" style="overflow: visible;"><div xmlns="http://www.w3.org/1999/xhtml" style="display: inline-block; white-space: nowrap; height: auto; line-height: 1;"><span class="nodeLabel">VS Code 扩展<br />Fork Kilo / Solid.js<br />License校验/品牌替换</span></div></foreignObject></g></g><g class="node default client flowchart-label" id="flowchart-JB-77" data-node="true" data-id="JB" transform="translate(1155.61328125, 56.5)"><rect class="basic label-container" style="" rx="0" ry="0" x="-69.59375" y="-31.5" width="139.1875" height="63"/><g class="label" style="" transform="translate(-62.09375, -24)"><rect/><foreignObject width="124.1875" height="53" style="overflow: visible;"><div xmlns="http://www.w3.org/1999/xhtml" style="display: inline-block; white-space: nowrap; height: auto; line-height: 1;"><span class="nodeLabel">JetBrains 插件<br />IntelliJ SDK / LSP<br />License校验</span></div></foreignObject></g></g><g class="node default client flowchart-label" id="flowchart-CLI-78" data-node="true" data-id="CLI" transform="translate(1331.88671875, 56.5)"><rect class="basic label-container" style="" rx="0" ry="0" x="-56.6796875" y="-31.5" width="113.359375" height="63"/><g class="label" style="" transform="translate(-49.1796875, -24)"><rect/><foreignObject width="98.359375" height="53" style="overflow: visible;"><div xmlns="http://www.w3.org/1999/xhtml" style="display: inline-block; white-space: nowrap; height: auto; line-height: 1;"><span class="nodeLabel">CLI / Web IDE<br />Kilo CLI封装<br />CI/CD集成</span></div></foreignObject></g></g></g></g></g></svg>